<svg data-v-fde0c5aa=""
    xmlns="http://www.w3.org/2000/svg" viewBox="0 0 300 300" class="iconLeft">    <!---->
    <defs data-v-fde0c5aa="">        <!----></defs>
    <rect data-v-fde0c5aa="" fill="transparent" x="0" y="0" width="300px" height="300px" class="logo-background-square"></rect>
    <defs data-v-fde0c5aa="">        <!----></defs>
    <g data-v-fde0c5aa="" id="154d1938-d2b1-461b-9379-fe34c67dddf1" fill="#000000" transform="matrix(2.1948109896814523,0,0,2.1948109896814523,92.09696556877348,131.10267708580383)">
        <path d="M3.95 6.58C2.23 6.58 1.01 7.56 0.91 9.02L1.90 9.02C1.96 8.18 2.76 7.49 3.91 7.49C5.19 7.49 5.95 8.16 5.95 9.67L5.95 9.94L3.68 9.93C1.76 9.93 0.62 10.79 0.62 12.01C0.62 13.27 1.67 14.14 3.01 14.14C4.30 14.14 5.32 13.55 6.08 12.96L6.29 14L6.97 14L6.97 9.67C6.97 7.70 5.88 6.58 3.95 6.58ZM1.65 12.00C1.65 11.19 2.37 10.79 3.70 10.79L5.95 10.79L5.95 12.11C5.19 12.70 4.24 13.22 3.22 13.22C2.37 13.22 1.65 12.78 1.65 12.00ZM14.87 9.30L15.88 9.30C15.76 7.94 14.45 6.58 12.52 6.58C10.36 6.58 8.79 8.20 8.79 10.33C8.79 12.47 10.36 14.14 12.54 14.14C14.28 14.14 15.69 13.03 15.85 11.54L14.84 11.54C14.66 12.57 13.72 13.23 12.52 13.23C11.06 13.23 9.86 12.07 9.86 10.36C9.86 8.69 11.02 7.49 12.54 7.49C13.86 7.49 14.77 8.44 14.87 9.30ZM18.77 3.08L17.72 3.08L17.72 14L18.77 14ZM23.97 6.58C22.25 6.58 21.03 7.56 20.93 9.02L21.92 9.02C21.98 8.18 22.78 7.49 23.93 7.49C25.21 7.49 25.97 8.16 25.97 9.67L25.97 9.94L23.70 9.93C21.78 9.93 20.64 10.79 20.64 12.01C20.64 13.27 21.69 14.14 23.03 14.14C24.32 14.14 25.34 13.55 26.10 12.96L26.31 14L26.99 14L26.99 9.67C26.99 7.70 25.90 6.58 23.97 6.58ZM21.67 12.00C21.67 11.19 22.39 10.79 23.72 10.79L25.97 10.79L25.97 12.11C25.21 12.70 24.26 13.22 23.24 13.22C22.39 13.22 21.67 12.78 21.67 12.00ZM32.84 6.58C32.07 6.58 31.21 6.97 30.27 7.76L30.09 6.72L29.34 6.72L29.34 14L30.38 14L30.38 8.75C31.29 7.98 32.03 7.59 32.65 7.59C32.97 7.59 33.25 7.64 33.49 7.73L33.61 6.71C33.40 6.64 33.15 6.58 32.84 6.58ZM38.12 6.58C36.08 6.58 34.50 8.19 34.50 10.33C34.50 12.50 36.04 14.14 38.14 14.14C39.80 14.14 41.06 13.06 41.30 11.76L40.31 11.76C40.10 12.66 39.24 13.23 38.14 13.23C36.69 13.23 35.63 12.15 35.52 10.63L41.34 10.63L41.44 10.54C41.62 8.41 40.14 6.58 38.12 6.58ZM35.56 9.74C35.81 8.39 36.88 7.48 38.11 7.48C39.40 7.48 40.29 8.48 40.43 9.76ZM42.48 7.62L43.61 7.62L43.61 12.00C43.61 13.57 44.48 14.14 45.60 14.14C46.34 14.14 47.04 13.99 47.61 13.73L47.50 12.84C46.98 13.06 46.40 13.22 45.75 13.22C45.07 13.22 44.65 12.85 44.65 11.98L44.65 7.62L47.57 7.62L47.57 6.72L44.65 6.72L44.65 4.65L43.64 4.91L43.64 6.72L42.48 6.72ZM49.60 14.14C50.05 14.14 50.43 13.76 50.43 13.30C50.43 12.87 50.05 12.50 49.60 12.50C49.15 12.50 48.78 12.87 48.78 13.30C48.78 13.76 49.15 14.14 49.60 14.14ZM58.31 3.08L58.31 7.66C57.67 6.94 56.78 6.58 55.71 6.58C53.66 6.58 52.02 8.20 52.02 10.33C52.02 12.52 53.65 14.14 55.72 14.14C56.91 14.14 57.81 13.69 58.45 12.87L58.65 14L59.32 14L59.32 3.08ZM55.75 13.23C54.32 13.23 53.09 11.97 53.09 10.33C53.09 8.72 54.32 7.49 55.75 7.49C56.95 7.49 57.81 8.11 58.28 9.03L58.28 11.68C57.79 12.63 56.97 13.23 55.75 13.23ZM64.86 6.58C62.82 6.58 61.24 8.19 61.24 10.33C61.24 12.50 62.78 14.14 64.88 14.14C66.54 14.14 67.80 13.06 68.04 11.76L67.05 11.76C66.84 12.66 65.98 13.23 64.88 13.23C63.43 13.23 62.37 12.15 62.26 10.63L68.08 10.63L68.18 10.54C68.36 8.41 66.88 6.58 64.86 6.58ZM62.30 9.74C62.55 8.39 63.62 7.48 64.85 7.48C66.14 7.48 67.03 8.48 67.17 9.76ZM75.35 6.72L72.81 13.15L70.29 6.72L69.10 6.72L72.24 14L73.37 14L76.50 6.72Z"></path>
    </g>
    <defs data-v-fde0c5aa="">
        <linearGradient data-v-fde0c5aa="" gradientTransform="rotate(25)" id="c74fed39-de77-46dd-b48b-a70e6a4836ab" x1="0%" y1="0%" x2="100%" y2="0%">
            <stop data-v-fde0c5aa="" offset="0%" stop-color="#01695A" stop-opacity="1"></stop>
            <stop data-v-fde0c5aa="" offset="100%" stop-color="#2CC26F" stop-opacity="1"></stop>
        </linearGradient>
    </defs>
    <g data-v-fde0c5aa="" id="c73f9c08-9671-4c20-b98c-74f21b552f2a" stroke="none" fill="url(#c74fed39-de77-46dd-b48b-a70e6a4836ab)" transform="matrix(0.4495285532267128,0,0,0.4495285532267128,37.75265496868033,127.52362549793997)">
        <path d="M94.361 58.33l-43-48c-.48-.53-1.16-.84-1.871-.83-.72 0-1.4.31-1.87.85l-42 48a2.524 2.524 0 0 0-.6 1.98c.1.71.49 1.35 1.09 1.75l42 28c.42.28.91.42 1.39.42.47 0 .951-.13 1.361-.41l43-28a2.47 2.47 0 0 0 1.119-1.76c.09-.73-.13-1.45-.619-2zm-45.861 26L11.26 59.5 48.5 16.94v67.39zm2 .04V16.86L88.691 59.5 50.5 84.37z"></path>
    </g>    <!----></svg>